<svg width="20" height="20" viewBox="0 0 20 20" fill="none" xmlns="http://www.w3.org/2000/svg">
<g clip-path="url(#clip0_5175_4450)">
<path d="M7.63611 3.65391L8.21047 2.17126C8.30733 1.92023 8.47775 1.70431 8.69941 1.55178C8.92106 1.39924 9.18362 1.3172 9.45269 1.31641H10.548C10.817 1.3172 11.0796 1.39924 11.3012 1.55178C11.5229 1.70431 11.6933 1.92023 11.7902 2.17126L12.3645 3.65391L14.3147 4.77591L15.8908 4.53548C16.1533 4.49985 16.4204 4.54306 16.6582 4.6596C16.8961 4.77614 17.0939 4.96075 17.2265 5.18998L17.7608 6.12498C17.8977 6.35786 17.9608 6.62678 17.9417 6.89625C17.9227 7.16572 17.8223 7.42307 17.654 7.63434L16.6789 8.87655V11.1205L17.6807 12.3628C17.849 12.574 17.9494 12.8314 17.9685 13.1009C17.9875 13.3703 17.9245 13.6392 17.7875 13.8721L17.2533 14.8071C17.1206 15.0364 16.9228 15.221 16.6849 15.3375C16.4471 15.454 16.18 15.4972 15.9175 15.4616L14.3414 15.2212L12.3913 16.3432L11.8169 17.8258C11.72 18.0769 11.5496 18.2928 11.328 18.4453C11.1063 18.5979 10.8438 18.6799 10.5747 18.6807H9.45269C9.18362 18.6799 8.92106 18.5979 8.69941 18.4453C8.47775 18.2928 8.30733 18.0769 8.21047 17.8258L7.63611 16.3432L5.68597 15.2212L4.10983 15.4616C3.84738 15.4972 3.58027 15.454 3.34244 15.3375C3.1046 15.221 2.90678 15.0364 2.77411 14.8071L2.23983 13.8721C2.10292 13.6392 2.03984 13.3703 2.05892 13.1009C2.078 12.8314 2.17833 12.574 2.34669 12.3628L3.32176 11.1205V8.87655L2.31997 7.63434C2.15162 7.42307 2.05128 7.16572 2.03221 6.89625C2.01313 6.62678 2.07621 6.35786 2.21311 6.12498L2.7474 5.18998C2.88007 4.96075 3.07789 4.77614 3.31572 4.6596C3.55356 4.54306 3.82067 4.49985 4.08311 4.53548L5.65926 4.77591L7.63611 3.65391ZM7.3289 9.99855C7.3289 10.5269 7.48558 11.0434 7.77912 11.4827C8.07266 11.922 8.48988 12.2644 8.97802 12.4666C9.46616 12.6688 10.0033 12.7217 10.5215 12.6186C11.0397 12.5156 11.5157 12.2611 11.8893 11.8875C12.2629 11.5139 12.5173 11.0379 12.6204 10.5197C12.7235 10.0015 12.6706 9.46438 12.4684 8.97624C12.2662 8.4881 11.9238 8.07088 11.4845 7.77734C11.0452 7.4838 10.5287 7.32712 10.0003 7.32712C9.29182 7.32712 8.61233 7.60857 8.11134 8.10956C7.61035 8.61055 7.3289 9.29004 7.3289 9.99855V9.99855Z" stroke="white" stroke-width="1.33571" stroke-linecap="round" stroke-linejoin="round"/>
</g>
<defs>
<clipPath id="clip0_5175_4450">
<rect width="18.7" height="18.7" fill="white" transform="translate(0.650024 0.648438)"/>
</clipPath>
</defs>
</svg>
