<svg width="22" height="19" viewBox="0 0 22 19" fill="none" xmlns="http://www.w3.org/2000/svg">
<path d="M9.58558 0.864221C10.3256 0.206784 11.501 0.172182 12.2868 0.760415L12.414 0.864221L14.3135 2.55192H16.9998C18.0542 2.55192 18.9179 3.27682 18.9943 4.19629L18.9998 4.32891V6.71566L20.8993 8.40335C21.6393 9.06083 21.6782 10.1052 21.0161 10.8034L20.8993 10.9165L18.9998 12.6042V14.9909C18.9998 15.9277 18.1839 16.6952 17.149 16.7631L16.9998 16.7679H14.3135L12.414 18.4556C11.6741 19.113 10.4986 19.1476 9.7128 18.5594L9.58558 18.4556L7.6861 16.7679H4.99978C3.94542 16.7679 3.08162 16.043 3.00527 15.1236L2.99979 14.9909V12.6041L1.10031 10.9165C0.360372 10.259 0.321429 9.21459 0.983482 8.51638L1.10032 8.40335L2.99979 6.7157V4.32891C2.99979 3.39211 3.81566 2.62463 4.85052 2.55679L4.99978 2.55192H7.6861L9.58558 0.864221ZM10.9998 2.12074L9.10028 3.80844C8.76691 4.10467 8.32792 4.28551 7.86195 4.32204L7.6861 4.32891H4.99978V6.7157C4.99978 7.13462 4.8333 7.53829 4.53287 7.85689L4.414 7.97225L2.51453 9.65995L4.414 11.3476C4.7474 11.6438 4.95093 12.0338 4.99204 12.4478L4.99978 12.6041V14.9909H7.6861C8.1576 14.9909 8.61192 15.1389 8.97046 15.4057L9.10028 15.5113L10.9998 17.199L12.8993 15.5113C13.2327 15.2152 13.6717 15.0343 14.1376 14.9978L14.3135 14.9909H16.9998V12.6042C16.9998 12.1852 17.1663 11.7815 17.4667 11.463L17.5856 11.3477L19.4851 9.65995L17.5856 7.97216C17.2522 7.67597 17.0486 7.28593 17.0075 6.87191L16.9998 6.71566V4.32891H14.3135C13.842 4.32891 13.3877 4.18099 13.0291 3.91406L12.8993 3.80844L10.9998 2.12074ZM14.0792 6.97891C14.4697 6.63194 15.1029 6.63194 15.4934 6.97891C15.8539 7.29921 15.8817 7.80319 15.5766 8.15172L15.4934 8.23542L10.6125 12.5722C10.2136 12.9265 9.58451 12.9518 9.1528 12.6481L9.05688 12.5722L6.65268 10.4361C6.26216 10.0891 6.26216 9.5265 6.65268 9.17954C7.01315 8.85927 7.58039 8.83463 7.97268 9.10563L8.06688 9.17954L9.83467 10.7501L14.0792 6.97891Z" fill="#11B95C"/>
</svg>
