<svg width="24" height="24" viewBox="0 0 24 24" fill="none" xmlns="http://www.w3.org/2000/svg">
<path fill-rule="evenodd" clip-rule="evenodd" d="M11.5393 4.04123L11.6417 4.00523C11.662 3.99815 11.6838 3.99873 11.7015 4.00494L18.2846 6.31833C18.3201 6.33078 18.344 6.364 18.344 6.4025V13.1755C18.344 14.8255 17.7439 16.4008 16.6853 17.6206C16.1776 18.2063 15.5137 18.6865 14.7603 19.0939L11.6777 20.7591L8.58925 19.0926C7.83427 18.6849 7.16914 18.205 6.66098 17.6187C6.44002 17.3644 6.23899 17.0945 6.05918 16.8117C5.37671 15.7383 5 14.4787 5 13.1715V6.4025C5 6.364 5.02387 6.33078 5.05945 6.31833L11.5393 4.04123ZM10.9803 2.11777C11.4278 1.96096 11.9163 1.96044 12.3645 2.11806L18.9454 4.43068L18.9465 4.43106C19.7844 4.72491 20.344 5.51539 20.344 6.4025V13.1755C20.344 15.3115 19.5677 17.3507 18.1962 18.9309C17.482 19.7549 16.6002 20.3726 15.7117 20.8531L12.1533 22.7753C11.8568 22.9355 11.4997 22.9356 11.2031 22.7756L7.63915 20.8526C6.7502 20.3724 5.86619 19.7552 5.15038 18.9295C3.77839 17.3496 3 15.3096 3 13.1715V6.4025C3 5.51525 3.56051 4.72441 4.39855 4.43068L10.9803 2.11777ZM16.1365 10.6364C16.488 10.2849 16.488 9.71505 16.1365 9.36358C15.785 9.01211 15.2152 9.01211 14.8637 9.36358L10.5001 13.7272L8.63649 11.8636C8.53211 11.7592 8.40846 11.6858 8.277 11.6434C7.9658 11.5431 7.61079 11.6165 7.3637 11.8636C7.01223 12.2151 7.01223 12.7849 7.3637 13.1364L7.55448 13.3271L9.8637 15.6364C10.2152 15.9878 10.785 15.9878 11.1365 15.6364L16.1365 10.6364Z" fill="white"/>
</svg>
